<svg id="Capa_1" data-name="Capa 1" xmlns="http://www.w3.org/2000/svg" viewBox="0 0 729.75 207.75"><defs><style>.cls-1{fill:#324165;}.cls-2{fill:#646466;}.cls-3{fill:#646467;}.cls-4{fill:#344367;}.cls-5{fill:#656568;}.cls-6{fill:#69686c;}.cls-7{fill:#67666b;}.cls-8{fill:#67676b;}.cls-9{fill:#69676a;}.cls-10{fill:#69666c;}.cls-11{fill:#fefefe;}.cls-12{fill:#fdfdfd;}.cls-13{fill:#344268;}</style></defs><path class="cls-1" d="M289.68,26.64Q284,40.35,278.25,54.05c-5.49,13.23-11.06,26.42-16.39,39.71-1,2.39-2.12,3.1-4.62,3.06-8.11-.13-8-.06-10.56-7.91q-9.83-30-19.86-59.9c-.21-.63-.1-1.52-1.39-2-.36,3.77-.79,7.41-1,11.05-1.23,18.54-2.5,37.07-3.53,55.61-.15,2.7-.92,3.23-3.41,3.19-6.89-.12-6.73,0-6.13-6.79,2-22.86,4.15-45.7,5.45-68.61.4-7.1.34-7.13,7.34-7.1,2.86,0,6.28-.83,8.43.44s1.87,5.11,2.77,7.78Q245.2,52.12,255,81.72c.14.42.32.83.79,2,3.15-7.48,6.12-14.25,8.88-21.11C270.94,47,278.53,32,284.25,16.16c.6-1.66,1.61-1.91,3.12-1.87,3.62.07,7.25.15,10.87,0,2.22-.11,2.69.74,2.64,2.78-.35,15.21-.68,30.43-.86,45.65q-.19,15.53.05,31.06c0,2.49-.71,3.08-3.12,3.07-7.69-.06-7.64,0-7.49-7.48q.63-31.24,1.21-62.47Z"/><path class="cls-1" d="M102.91,53.83c0,22.45-10.44,37.17-30.33,42.53A56.2,56.2,0,0,1,38.36,95C28,91.31,20.43,84.33,16.74,73.75a50.08,50.08,0,0,1-1.39-27.66c5-22.59,21.2-32,42.1-33.25,8.19-.48,16.29.46,23.74,4C96.67,24.24,103,37.23,102.91,53.83Z"/><path class="cls-1" d="M393.06,96.67c-4.14,0-8.47,1.18-11.45-.33s-2.75-6.52-4-10c-2.54-6.88-5-13.81-7.24-20.79-.82-2.51-2-3.45-4.75-3.39-8.73.21-17.48.19-26.21,0-2.51-.06-3.77.72-4.8,3-4.18,9-8.67,17.94-12.76,27-1.48,3.31-3.09,5.32-7.1,4.65-2.38-.4-4.89-.08-7.81-.08,5.06-9.69,9.94-18.91,14.69-28.18Q334.79,42.8,347.83,17c.95-1.88,1.91-2.89,4.16-2.68,3.71.33,8.36-1.43,10.92.64s2.94,6.61,4.2,10.1q12.34,34,24.64,68.09Z"/><path class="cls-1" d="M651.76,96.65c-4.21,0-8.54,1.17-11.51-.33s-2.65-6.32-3.86-9.65c-2.61-7.26-5.22-14.51-7.67-21.83-.67-2-1.62-2.65-3.74-2.62-9.11.13-18.23.15-27.34,0a3.92,3.92,0,0,0-4.2,2.69C589,74.49,584.27,84,579.86,93.6c-1.08,2.36-2.3,3.46-5,3.21-2.84-.26-5.73-.06-9.25-.06,1.92-3.69,3.66-7,5.38-10.37q17.81-34.72,35.55-69.5c1-1.93,2-2.79,4.21-2.6,3.71.32,8.29-1.42,10.92.66,2.41,1.91,2.79,6.41,4,9.79q12.4,34.21,24.79,68.43Z"/><path class="cls-1" d="M562.28,86.34a6.46,6.46,0,0,1,.13,1.19c-1.48,9.18-1.49,9.09-10.87,10-8.1.8-16.15,1.3-24.19-.57-20.32-4.73-31.53-19-31.09-39.85.24-11.54,3-22.26,11.08-30.95,8.61-9.24,19.82-12.57,32-13.33,6.88-.43,13.7.42,20.5,1.47,2.36.36,3.88,1,3.46,4-.28,1.93.14,4,.26,6.29-4.65-.93-9-2.53-13.69-3.06a46.53,46.53,0,0,0-16.72.79c-16.57,4.11-26.54,18.52-25.63,36.51,1.21,23.87,18.89,33.09,38.93,30.85A96.08,96.08,0,0,0,562.28,86.34Z"/><path class="cls-1" d="M146.44,51c4.86,0,9.73.09,14.6,0,2.37-.07,3.27.36,2.9,3.09-.7,5.16-.49,5.19-5.9,5.19-8.86,0-17.72.09-26.57-.06-2.55,0-3.44.56-3.44,3.27,0,10.47-.38,20.95-.42,31.43,0,2.31-.61,2.89-2.91,2.9-9.26,0-9.07.13-8.66-8.86.78-16.69,1.36-33.39,1.95-50.08q.38-10.65.43-21.32c0-1.84.64-2.29,2.38-2.28q23.22.09,46.46,0c2,0,2.2.67,2.05,2.38-.52,5.9-.46,5.91-6.55,5.91-10,0-20,0-30,0-2.17,0-3.27.19-3.28,2.91,0,7.73-.28,15.46-.75,23.17-.14,2.2.5,2.49,2.34,2.46C136.2,51,141.32,51,146.44,51Z"/><path class="cls-1" d="M429.49,14.31c9.36,0,18.73.06,28.09,0,2.31,0,3.62.38,3,3a2.38,2.38,0,0,0,0,.38c-.12,5.85-.11,5.67-6.07,5.31-5.73-.36-11.48-.2-17.21-.46-2.23-.1-2.75.88-2.82,2.81-.55,15.44-1.16,30.88-1.71,46.32-.28,7.59-.51,15.19-.64,22.79,0,1.74-.44,2.46-2.3,2.36-3-.17-6.76,1-8.77-.44-2.3-1.63-.35-5.53-.24-8.4Q422,57.51,423.57,27.1c.18-3.54-.68-4.84-4.43-4.54-6.2.5-12.45.43-18.67.78-2.36.13-3-.55-2.75-2.9.61-6.12.51-6.13,6.68-6.13Z"/><path class="cls-1" d="M190.66,14.31c6,0,5.71,0,5.44,6.14-.79,18.19-1.38,36.38-2,54.58-.22,6.48-.39,13-.43,19.44,0,1.79-.56,2.25-2.34,2.33-9.92.47-9.77.53-9.26-9.35,1.14-22.28,2.08-44.58,2.38-66.9C184.52,14.31,184.45,14.31,190.66,14.31Z"/><path class="cls-1" d="M470.9,25.19V23.31c0-10,0-9.94,10.19-9,1.82.16,2,.89,1.85,2.33-1.89,25.88-2.29,51.81-2.88,77.74,0,.5.16,1.29-.08,1.45-3.38,2.16-7.13.64-10.7.89-2.41.17-1.28-2.06-1.24-3.11.61-13.2,1.53-26.38,2-39.58.32-9.59.06-19.2.06-28.79Z"/><path class="cls-2" d="M548,176.87c-4.35,5.69-9.52,7.86-16,6.37-6.1-1.39-9.47-5.15-10.12-11.36-1.3-12.53,6.25-21.3,18.85-21.92,3.77-.18,7.44.54,11.13,1,1.74.24,2.5.89,2.39,2.9-.6,10.71-1,21.43-1.5,32.14-.33,6.4-3.63,9.95-9.92,11.29-5.38,1.15-10.63.37-15.92-.52-2.16-.36-2.23-1.81-2-3.28.37-2.23,2-.81,2.88-.59a33.27,33.27,0,0,0,10,1.24c6-.29,9.15-3.25,9.75-9.21C547.7,182.53,547.77,180.06,548,176.87Z"/><path class="cls-2" d="M400.52,156c4.81-6.6,13.27-6.95,18.79-4.92,3.91,1.44,5.69,4.57,5.63,8.45-.1,7.11-.68,14.21-.86,21.32-.07,2.77-1.88,1.94-3.33,2.1-2,.23-2.18-.86-2.06-2.5.4-5.1.66-10.21,1-15.31.46-6.68-1.5-9.82-6.7-10.61-6.09-.92-11.17,2.21-12.55,8-1.3,5.49-1.3,11.14-1.39,16.75,0,2.08.27,3.78-2.93,3.77-3.65,0-2.49-2.32-2.41-4,.36-8.35.88-16.7,1.24-25.05.09-2.09.2-3.39,3-3.37s2.48,1.6,2.39,3.35A17.42,17.42,0,0,0,400.52,156Z"/><path class="cls-2" d="M638.24,166c0,10.85-6.61,17.75-16.87,17.67-9.64-.08-15.64-6.27-15.66-16.13,0-10.86,6.52-17.67,16.9-17.6C632.42,150,638.26,156,638.24,166Z"/><path class="cls-2" d="M157.29,167.46c0-10.7,6.43-17.44,16.64-17.49,10-.05,15.95,6,15.9,16.16-.05,10.68-6.54,17.55-16.6,17.57C163.39,183.72,157.28,177.49,157.29,167.46Z"/><path class="cls-2" d="M431.74,167.61c0-10.87,6.49-17.69,16.87-17.64,9.81.05,15.67,6,15.67,16,0,10.72-6.44,17.64-16.46,17.72S431.77,177.6,431.74,167.61Z"/><path class="cls-2" d="M516.77,166c0,10.88-6.55,17.79-16.79,17.74-9.77-.06-15.8-6.34-15.75-16.43.06-10.56,6.67-17.35,16.86-17.3C510.91,150,516.77,156,516.77,166Z"/><path class="cls-2" d="M240.53,167.6c0-10.87,6.49-17.69,16.87-17.63,9.81.05,15.67,6,15.67,16,0,10.71-6.45,17.63-16.47,17.71S240.56,177.6,240.53,167.6Z"/><path class="cls-2" d="M97.39,177.54c-4.61,6.09-10.33,7-16.69,5.57-5.22-1.19-7.77-4.17-7.71-9.52.08-7,.58-14,.79-20.93.08-2.87,2.13-1.72,3.5-1.93,2-.3,2.14.86,2,2.49-.45,5.47-.84,10.95-1.1,16.42-.27,5.76,1.16,8,5.51,9.24,5,1.39,10.33-.69,12.55-5,1.79-3.44,1.73-7.23,1.92-11,.17-3.36.31-6.73.23-10.1-.07-2.78,1.83-2,3.3-2.14,1.85-.23,2.25.47,2.14,2.31-.51,8.84-.86,17.69-1.2,26.53-.07,2,.15,3.56-2.82,3.5s-2.41-1.71-2.34-3.42C97.49,179.18,97.44,178.73,97.39,177.54Z"/><path class="cls-2" d="M40.77,176.63c3.79,1.32,7.24,2.84,11.1,2.58,3.26-.21,6.38-.82,7.76-4.17s-.59-5.73-2.94-7.81c-2.8-2.48-5.64-4.93-8.49-7.36-5.66-4.85-7.33-8.92-5.52-13.49s6.52-7.13,13.37-6.86a50.25,50.25,0,0,1,6.61,1.07c2.1.37,2,2.08,1.8,3.51-.3,2-1.89.65-2.64.5-3.23-.63-6.43-1.17-9.6,0-4.64,1.65-5.76,5.63-2.67,9.46,2.76,3.44,6.44,5.89,9.76,8.72,4.26,3.63,7.94,7.49,5.89,13.75-1.52,4.63-6.49,7.25-13.59,7.18a51.79,51.79,0,0,1-5.93-.6C40.55,182.42,40.55,182.4,40.77,176.63Z"/><path class="cls-2" d="M126.29,176.61c3.92,1.49,7.52,2.93,11.51,2.59,3.11-.27,6.08-1,7.34-4.22s-.47-5.52-2.74-7.53q-4.36-3.84-8.77-7.62c-5.63-4.83-7.3-8.93-5.44-13.51s6.57-7.09,13.4-6.8a48.48,48.48,0,0,1,6.61,1.1c2.12.39,2,2.15,1.73,3.54-.36,2-1.94.59-2.69.42a21.48,21.48,0,0,0-7.81-.49c-2.55.36-4.87,1.46-5.82,4.11s.13,4.73,1.95,6.43c3,2.8,6.15,5.48,9.28,8.15,4.27,3.63,7.91,7.52,5.82,13.77-1.54,4.62-6.51,7.2-13.63,7.12a49.5,49.5,0,0,1-5.92-.61C126,182.41,126,182.39,126.29,176.61Z"/><path class="cls-2" d="M354.52,178.22c.75,2.94-.31,4.32-3.12,4.75-3.21.5-6.4,1.09-9.64.6-10.73-1.63-15.85-10.32-12.87-21.74A15.92,15.92,0,0,1,352,151.71c3.75,2,6.18,7,5.85,11.36-.16,2.18-1.49,1.88-2.83,1.89-6.11,0-12.22.12-18.33-.06-2.46-.07-3.19.72-3.15,3.13.12,8.41,6.2,13.28,14.88,11.68C350.46,179.34,352.46,178.73,354.52,178.22Z"/><path class="cls-2" d="M306.53,163.85c0-5.48-.13-11,.06-16.43.07-2.19-.57-2.84-2.68-2.73-2.86.14-5.74,0-8.6.06-1.61.05-2.25-.48-2.11-2.12.11-1.32.07-2.44,1.95-2.42q14.4.07,28.8,0c1.57,0,1.84.75,1.74,2.1s.06,2.5-1.88,2.43c-2.86-.1-5.75.16-8.59-.07-2.55-.21-3.14.84-3.2,3.16-.24,10.58-.65,21.16-1,31.75a3.63,3.63,0,0,1-5.41,3.31c-1.22-.57-.59-1.51-.56-2.25.23-5.6.54-11.19.82-16.79Z"/><path class="cls-3" d="M599.54,178.86c.15,2.18-.42,3.53-2.52,4a22,22,0,0,1-12.17-.15,10.84,10.84,0,0,1-4.52-2.56c-5.78-5.83-5.43-12.87-3.49-19.95,1.73-6.36,6.4-9.72,13.24-10.27a28.92,28.92,0,0,1,8.88,1,2.21,2.21,0,0,1,1.8,2.79c-.32,2.09-1.84.76-2.61.61a25.77,25.77,0,0,0-5.93-.64,10.61,10.61,0,0,0-10,7.14,20,20,0,0,0-.82,10.71c1.14,6.23,6.57,9.4,13.74,8.2C596.57,179.52,598,179.18,599.54,178.86Z"/><path class="cls-3" d="M219.38,178.83c.2,2.76-1,3.77-3.33,4.24a22.72,22.72,0,0,1-10.72-.12,11.26,11.26,0,0,1-4.94-2.56c-6.06-5.83-5.68-13-3.7-20.21,1.78-6.47,6.68-9.83,13.66-10.22a32.9,32.9,0,0,1,8.16.91,2.3,2.3,0,0,1,2.06,2.95c-.39,2.06-2,.72-2.67.53-13-3.48-18.75,6-16.55,17.66,1.14,6,6.68,9,13.69,7.74C216.47,179.5,217.88,179.15,219.38,178.83Z"/><path class="cls-3" d="M385.84,178.81c.21,2.81-1,3.81-3.35,4.27a22.75,22.75,0,0,1-10.35-.06,11.7,11.7,0,0,1-5.3-2.64c-6.06-5.84-5.67-13-3.68-20.22,1.78-6.46,6.7-9.81,13.68-10.2a32.82,32.82,0,0,1,8.15.92,2.28,2.28,0,0,1,2,3c-.4,2-2,.7-2.68.51-13-3.48-18.73,6-16.53,17.67,1.12,5.92,6.44,8.83,13.33,7.79C382.62,179.59,384.07,179.19,385.84,178.81Z"/><path class="cls-4" d="M723.68,78.82c-.06,11.65-7.12,18.73-18.64,18.69-11.12,0-17.76-6.48-17.76-17.24,0-11.54,7.42-18.82,19.11-18.75C717.08,61.59,723.73,68.25,723.68,78.82Z"/><path class="cls-5" d="M470.55,179.2c.45-12.35,1-24.07,1.22-35.8.05-2.74,1-3.24,3.45-3.26,3,0,2.3,1.8,2.23,3.46q-.75,17.58-1.51,35.17c-.1,2.33.19,4.67-3.63,4.27S471.07,180,470.55,179.2Z"/><path class="cls-5" d="M233.34,156.13a215.43,215.43,0,0,0-.91,23.9c0,3.09-1.59,2.91-3.74,3-2.88.08-2.06-1.86-2-3.3.36-8.71.87-17.41,1.14-26.13.07-2.29.75-3,3-2.93s2.85.81,2.5,2.88A14.32,14.32,0,0,0,233.34,156.13Z"/><path class="cls-5" d="M567.55,166.44c0,4.49-.15,9,.05,13.46.13,2.87-1.24,3.1-3.59,3.12-2.73,0-2.23-1.61-2.16-3.18.4-8.84.92-17.67,1.15-26.51.07-2.62,1.35-2.61,3.28-2.67,2.17-.06,2.42.91,2.28,2.72-.34,4.35-.5,8.71-.74,13.06Z"/><path class="cls-6" d="M19.17,150.36c1.8-3,3.53-5.86,5.17-8.75.65-1.14,1.56-1.74,2.74-1.28,1.56.6.29,1.66.12,2.46-.26,1.21-.85,2.35-1.08,3.56C25.44,150.06,23.5,151.71,19.17,150.36Z"/><path class="cls-7" d="M653.27,140.62c-1.82,3.1-3.62,6.16-5.43,9.21a1.92,1.92,0,0,1-2.61.74c-1.12-.55-.19-1.51,0-2.24.33-1.32,1-2.56,1.23-3.89C647.11,140.55,649.24,139.29,653.27,140.62Z"/><path class="cls-8" d="M663.3,140.67c-3.45,3.12-3.31,8.83-9.26,10.46a61.63,61.63,0,0,0,2.29-7.12C657.06,140,659.45,139.64,663.3,140.67Z"/><path class="cls-9" d="M28.88,150.33c1.79-3,3.49-5.75,5.05-8.57.72-1.29,1.74-2,3-1.39s.12,1.69-.11,2.52a31.87,31.87,0,0,0-1.15,3.55C35.1,150.38,33,151.69,28.88,150.33Z"/><path class="cls-7" d="M508.14,139c-3.82,2.7-3.48,8.53-9.26,7.9C500.82,138.43,500.82,138.43,508.14,139Z"/><path class="cls-10" d="M231.65,144.75c-2.06-.08-3.8.53-3.69-2.23.09-2.13,1-2.52,2.73-2.29,1.37.18,3.4-.86,3.35,2C234,144.4,233.14,145.16,231.65,144.75Z"/><path class="cls-10" d="M566.87,144.76c-2.08-.1-3.78.53-3.73-2.23.05-2.54,1.45-2.4,3.1-2.31,1.38.07,3-.52,3,2C569.17,144.37,568.35,145.17,566.87,144.76Z"/><path class="cls-11" d="M91.62,56.08c-.18,10-3,20.49-12.76,27.79C68,92,48.92,92,37.83,84.21,29,78,25.75,68.94,25.54,58.6c-.27-13,3.36-24.49,14.7-32.17,12.93-8.75,33.39-6.76,43.51,4.14C90,37.28,91.57,45.66,91.62,56.08Z"/><path class="cls-11" d="M366.68,54H339.76c2.28-4.56,4.43-8.85,6.57-13.15,2.67-5.35,5.32-10.71,8-16,.25-.5.69-1.22,1.11-1.27.8-.1.73.85.92,1.38C359.79,34.45,363.17,44,366.68,54Z"/><path class="cls-11" d="M598.47,53.91c5.18-10.38,10.22-20.46,15.73-31.49l11.17,31.49Z"/><path class="cls-11" d="M548.43,162.2c-.26,3.46,0,7-1.36,10.32-2.15,5.51-6.84,8.32-12.36,7.33-4.94-.89-7.66-4.71-7.71-10.81-.07-10.29,7-16.6,17.16-15.26,3.26.44,5.39,1.64,4.57,5.45A24.29,24.29,0,0,0,548.43,162.2Z"/><path class="cls-11" d="M632.89,166.11c-.07,9.15-4.8,14.42-12.43,13.81a10.18,10.18,0,0,1-2.88-.69c-5.64-2.23-8-9.19-5.78-17.09,1.7-6.15,6.55-9.34,12.64-8.31C630,154.76,633,159.12,632.89,166.11Z"/><path class="cls-11" d="M184.48,165.93c0,9.16-4.65,14.49-12.25,14a10.16,10.16,0,0,1-2.89-.63c-5.81-2.19-8.21-9.28-5.91-17.34,1.73-6.06,6.74-9.23,12.79-8.09C181.58,154.87,184.48,159.1,184.48,165.93Z"/><path class="cls-11" d="M437.12,167.81c.12-9.53,4.76-14.63,12.3-14.09a9.23,9.23,0,0,1,8.74,6.93,19.17,19.17,0,0,1-.17,11.42c-1.72,5.61-5.78,8.34-11.57,7.87-5-.4-8.46-4.09-9.16-9.73C437.14,169.23,437.15,168.23,437.12,167.81Z"/><path class="cls-11" d="M489.62,167.7c-.05-9.17,4.59-14.48,12.21-14a9.2,9.2,0,0,1,8.8,6.85,18.87,18.87,0,0,1-1.07,13.83c-1.83,4-5.72,5.89-10.54,5.54-4.17-.3-7.27-2.86-8.66-7.09A17.07,17.07,0,0,1,489.62,167.7Z"/><path class="cls-11" d="M245.92,167.24c.1-9,4.74-14.08,12.28-13.49a12.13,12.13,0,0,1,3.61.86c5.29,2.22,7.42,10.16,4.85,17.8-2,5.84-7.06,8.73-12.91,7.32C248.59,178.48,245.84,174.09,245.92,167.24Z"/><path class="cls-12" d="M334.31,162.46c1-6.66,7.14-10.46,13.34-8.29a7,7,0,0,1,4.57,4.55c.78,2.4,1,4.27-2.72,4.06-4.82-.28-9.67-.09-14.5-.11A2.6,2.6,0,0,1,334.31,162.46Z"/><path class="cls-11" d="M705.08,95.25c-9.82,0-15.63-5.67-15.57-15.09.08-10.19,6.41-16.4,16.71-16.38,9.73,0,15.2,5.57,15.19,15.39C721.4,89.45,715.48,95.29,705.08,95.25Z"/><path class="cls-13" d="M706.87,80.76c1.75,2.59,3.56,5.24,5.36,7.9l-.84.74c-4.93-1.27-5-7-8.68-10.22a27.35,27.35,0,0,0,4.86-.88,3.28,3.28,0,0,0,2.22-4.19c-.88-2.76-3.38-1.9-5.4-2.1s-2.13,1.13-2.16,2.59q-.13,6.16-.3,12.33c0,1,.33,2.3-1.5,2.35s-1.53-1.15-1.49-2.24q.31-7.67.64-15.31c0-.82-.21-1.94,1.12-1.91,3,.08,6-.52,8.91.38A4,4,0,0,1,712.73,74,5.32,5.32,0,0,1,710,79.29C709.07,79.87,707.75,79.6,706.87,80.76Z"/></svg>