<svg id="Capa_1" data-name="Capa 1" xmlns="http://www.w3.org/2000/svg" viewBox="0 0 729.75 207.75"><defs><style>.cls-1{fill:#fff;}</style></defs><path class="cls-1" d="M285.69,25.19Q280,38.9,274.27,52.61c-5.5,13.22-11.06,26.41-16.4,39.7-1,2.4-2.11,3.11-4.62,3.06-8.1-.13-8-.06-10.56-7.91q-9.83-30-19.86-59.89c-.21-.64-.1-1.52-1.38-2-.36,3.77-.8,7.4-1,11-1.24,18.53-2.5,37.06-3.54,55.6-.15,2.7-.91,3.23-3.41,3.19-6.89-.12-6.73,0-6.13-6.79,2-22.85,4.15-45.7,5.45-68.61.41-7.1.34-7.12,7.34-7.1,2.86,0,6.28-.83,8.44.44s1.87,5.11,2.76,7.79q9.9,29.57,19.68,59.17c.14.43.33.83.79,2,3.15-7.47,6.12-14.25,8.88-21.11,6.28-15.59,13.88-30.62,19.59-46.44.6-1.66,1.61-1.9,3.13-1.87,3.62.08,7.25.16,10.86,0,2.22-.11,2.69.73,2.64,2.77-.35,15.22-.67,30.43-.86,45.65q-.19,15.52.06,31.06c0,2.5-.72,3.09-3.12,3.07-7.69-.06-7.65,0-7.5-7.48q.64-31.23,1.21-62.47Z"/><path class="cls-1" d="M558.29,84.89a6.46,6.46,0,0,1,.13,1.19c-1.48,9.18-1.48,9.1-10.87,10-8.1.79-16.15,1.29-24.19-.58-20.32-4.73-31.53-19-31.09-39.84.24-11.54,3-22.26,11.09-31,8.61-9.24,19.81-12.56,32-13.32,6.88-.43,13.7.41,20.5,1.46,2.37.36,3.88,1.06,3.46,4-.27,1.92.14,3.95.27,6.28-4.66-.93-9.06-2.53-13.7-3.06a46.75,46.75,0,0,0-16.72.8C512.58,25,502.61,39.38,503.52,57.37c1.21,23.87,18.89,33.09,38.93,30.85A96.94,96.94,0,0,0,558.29,84.89Z"/><path class="cls-1" d="M142.45,49.59c4.87,0,9.74.1,14.6,0,2.37-.07,3.27.36,2.9,3.09-.69,5.17-.49,5.19-5.9,5.19-8.86,0-17.72.1-26.57,0-2.55,0-3.43.56-3.44,3.26,0,10.48-.38,20.95-.42,31.43,0,2.32-.61,2.89-2.91,2.9-9.25,0-9.07.13-8.65-8.86.77-16.69,1.35-33.38,1.94-50.08q.38-10.65.44-21.31c0-1.84.63-2.29,2.37-2.29q23.24.09,46.46,0c2,0,2.2.68,2,2.39-.51,5.89-.46,5.9-6.55,5.9-10,0-20,.05-30,0-2.18,0-3.28.2-3.28,2.92,0,7.72-.29,15.46-.76,23.17-.14,2.19.5,2.49,2.34,2.46C132.22,49.54,137.33,49.59,142.45,49.59Z"/><path class="cls-1" d="M425.5,12.87c9.37,0,18.73.06,28.09,0,2.31,0,3.62.39,3,3a2.29,2.29,0,0,0,0,.37c-.12,5.85-.11,5.68-6.08,5.31-5.72-.35-11.47-.2-17.21-.46-2.23-.1-2.75.88-2.82,2.81-.55,15.44-1.16,30.88-1.71,46.32-.27,7.6-.51,15.2-.64,22.79,0,1.74-.44,2.46-2.29,2.36-3-.16-6.77,1-8.78-.44-2.3-1.63-.34-5.52-.23-8.39q1.19-30.44,2.76-60.85c.19-3.55-.67-4.85-4.42-4.55-6.21.51-12.46.43-18.68.78-2.35.14-3-.55-2.75-2.89.61-6.12.52-6.13,6.68-6.13Z"/><path class="cls-1" d="M186.68,12.87c6,0,5.7,0,5.43,6.14-.79,18.18-1.38,36.38-2,54.57-.23,6.48-.39,13-.44,19.44,0,1.8-.56,2.26-2.33,2.34-9.92.46-9.77.52-9.27-9.35,1.14-22.29,2.08-44.59,2.38-66.91C180.54,12.87,180.47,12.87,186.68,12.87Z"/><path class="cls-1" d="M466.91,23.74V21.87c0-10,0-10,10.2-9.06,1.82.16,1.95.89,1.84,2.34C477.06,41,476.66,67,476.07,92.88c0,.5.16,1.3-.08,1.45-3.38,2.17-7.12.64-10.69.89-2.42.17-1.29-2-1.24-3.11.6-13.19,1.52-26.38,2-39.58.32-9.59.06-19.19.06-28.79Z"/><path class="cls-1" d="M396.53,154.56c4.81-6.6,13.27-7,18.8-4.92,3.91,1.44,5.68,4.56,5.62,8.45-.1,7.11-.68,14.2-.86,21.31-.06,2.77-1.87,1.94-3.33,2.11-2,.23-2.18-.87-2.05-2.5.4-5.1.65-10.21,1-15.32.46-6.68-1.5-9.82-6.7-10.6-6.09-.93-11.17,2.2-12.54,8-1.31,5.49-1.31,11.14-1.4,16.75,0,2.08.28,3.79-2.92,3.77-3.65,0-2.49-2.31-2.42-4,.36-8.36.89-16.7,1.24-25.06.09-2.09.2-3.39,3-3.37s2.48,1.6,2.39,3.35A20,20,0,0,0,396.53,154.56Z"/><path class="cls-1" d="M93.4,176.09c-4.61,6.09-10.33,7-16.69,5.58-5.22-1.2-7.77-4.17-7.71-9.53.08-7,.59-13.95.79-20.93.09-2.86,2.13-1.72,3.5-1.92,2-.3,2.14.85,2,2.49-.44,5.47-.84,10.94-1.09,16.42-.27,5.76,1.16,8,5.51,9.23,5,1.4,10.33-.69,12.54-5,1.79-3.44,1.74-7.23,1.92-11,.17-3.37.31-6.74.23-10.1-.07-2.79,1.84-2,3.31-2.15,1.84-.22,2.24.47,2.13,2.31-.5,8.84-.86,17.69-1.19,26.54-.08,1.95.14,3.56-2.83,3.49s-2.4-1.71-2.33-3.42C93.5,177.74,93.45,177.29,93.4,176.09Z"/><path class="cls-1" d="M36.79,175.18c3.79,1.33,7.23,2.85,11.1,2.59,3.25-.22,6.37-.83,7.75-4.17s-.59-5.74-2.93-7.81c-2.81-2.49-5.65-4.93-8.49-7.37-5.66-4.84-7.34-8.91-5.53-13.48s6.53-7.14,13.37-6.87a50.29,50.29,0,0,1,6.61,1.08c2.1.37,2,2.08,1.8,3.5-.3,2-1.89.65-2.64.51-3.22-.64-6.43-1.17-9.6,0-4.64,1.64-5.76,5.62-2.67,9.46,2.76,3.43,6.44,5.88,9.76,8.71,4.26,3.63,8,7.49,5.89,13.75-1.52,4.64-6.49,7.26-13.58,7.18a51.54,51.54,0,0,1-5.93-.59C36.56,181,36.56,181,36.79,175.18Z"/><path class="cls-1" d="M122.3,175.16c3.92,1.49,7.53,2.94,11.51,2.59,3.11-.27,6.08-1,7.35-4.21s-.48-5.53-2.75-7.54q-4.35-3.84-8.76-7.62c-5.64-4.83-7.3-8.93-5.45-13.5s6.58-7.1,13.41-6.81a50.21,50.21,0,0,1,6.6,1.1c2.12.4,2,2.15,1.73,3.54-.36,2-1.94.6-2.69.42a21.66,21.66,0,0,0-7.8-.48c-2.56.35-4.87,1.45-5.82,4.1s.12,4.73,2,6.43c3,2.81,6.14,5.49,9.28,8.15,4.26,3.63,7.91,7.52,5.82,13.77-1.55,4.62-6.52,7.2-13.63,7.12a51.56,51.56,0,0,1-5.93-.6C122,181,122,181,122.3,175.16Z"/><path class="cls-1" d="M302.54,162.4c0-5.48-.13-11,.06-16.43.08-2.19-.57-2.84-2.68-2.73-2.86.15-5.74,0-8.6.06-1.61.06-2.25-.47-2.11-2.12.11-1.32.08-2.43,2-2.42q14.4.09,28.8,0c1.57,0,1.84.74,1.74,2.09s.07,2.5-1.87,2.44c-2.87-.1-5.75.15-8.6-.08-2.55-.2-3.14.84-3.19,3.16-.25,10.59-.66,21.17-1,31.75a3.62,3.62,0,0,1-5.41,3.31c-1.22-.57-.59-1.5-.56-2.24.23-5.6.54-11.2.83-16.8Z"/><path class="cls-1" d="M595.55,177.41c.15,2.19-.41,3.54-2.51,4.05a22,22,0,0,1-12.18-.14,10.92,10.92,0,0,1-4.52-2.57c-5.78-5.83-5.42-12.86-3.49-19.95,1.74-6.36,6.41-9.72,13.24-10.27a29.3,29.3,0,0,1,8.89,1,2.2,2.2,0,0,1,1.79,2.78c-.31,2.1-1.84.77-2.61.61a26.34,26.34,0,0,0-5.93-.64,10.63,10.63,0,0,0-10,7.14,19.87,19.87,0,0,0-.81,10.71c1.14,6.24,6.56,9.4,13.74,8.2C592.59,178.08,594,177.73,595.55,177.41Z"/><path class="cls-1" d="M215.39,177.39c.21,2.75-1,3.77-3.33,4.24a22.59,22.59,0,0,1-10.72-.13A11.14,11.14,0,0,1,196.4,179c-6.06-5.84-5.68-13-3.7-20.22,1.78-6.47,6.69-9.82,13.67-10.22a32.82,32.82,0,0,1,8.15.92,2.3,2.3,0,0,1,2.07,2.95c-.4,2.05-2,.71-2.68.53-13-3.48-18.75,6-16.55,17.65,1.14,6,6.69,9,13.69,7.74C212.48,178.06,213.89,177.71,215.39,177.39Z"/><path class="cls-1" d="M381.86,177.36c.2,2.81-1,3.82-3.36,4.27a22.62,22.62,0,0,1-10.35,0,11.72,11.72,0,0,1-5.3-2.65c-6.05-5.83-5.66-13-3.67-20.22,1.78-6.46,6.69-9.81,13.67-10.2a32.82,32.82,0,0,1,8.15.92,2.3,2.3,0,0,1,2.05,3c-.41,2-2,.7-2.68.51-13-3.47-18.74,6-16.54,17.67,1.12,5.92,6.44,8.83,13.33,7.8C378.64,178.14,380.08,177.74,381.86,177.36Z"/><path class="cls-1" d="M466.57,177.76c.44-12.35,1-24.08,1.21-35.81.06-2.74,1-3.23,3.45-3.26,3,0,2.3,1.8,2.23,3.46L472,177.32c-.1,2.34.18,4.68-3.64,4.28S467.08,178.56,466.57,177.76Z"/><path class="cls-1" d="M229.35,154.68a218,218,0,0,0-.91,23.91c0,3.08-1.59,2.9-3.73,3-2.88.09-2.07-1.86-2-3.29.36-8.71.87-17.42,1.14-26.13.07-2.29.75-3,3-2.94s2.85.82,2.51,2.88A13.58,13.58,0,0,0,229.35,154.68Z"/><path class="cls-1" d="M563.56,165c0,4.49-.15,9,.06,13.46.12,2.87-1.25,3.1-3.59,3.13-2.74,0-2.24-1.62-2.17-3.19.4-8.83.93-17.66,1.16-26.5.07-2.63,1.34-2.61,3.27-2.67,2.17-.07,2.42.9,2.28,2.71-.33,4.35-.5,8.71-.73,13.06Z"/><path class="cls-1" d="M15.18,148.92c1.8-3,3.53-5.87,5.18-8.76.64-1.14,1.55-1.73,2.73-1.28,1.57.6.3,1.66.12,2.47-.25,1.21-.85,2.34-1.08,3.56C21.45,148.61,19.51,150.27,15.18,148.92Z"/><path class="cls-1" d="M649.29,139.18c-1.83,3.1-3.63,6.15-5.44,9.2a1.91,1.91,0,0,1-2.6.74c-1.13-.55-.2-1.51,0-2.24.34-1.31,1-2.56,1.23-3.88C643.12,139.11,645.25,137.84,649.29,139.18Z"/><path class="cls-1" d="M659.31,139.23c-3.45,3.12-3.3,8.82-9.26,10.45a58.6,58.6,0,0,0,2.29-7.12C653.07,138.57,655.46,138.2,659.31,139.23Z"/><path class="cls-1" d="M24.89,148.89c1.79-3,3.49-5.76,5.06-8.57.72-1.29,1.73-2,3-1.4s.12,1.7-.1,2.53A31.78,31.78,0,0,0,31.69,145C31.11,148.93,29,150.25,24.89,148.89Z"/><path class="cls-1" d="M504.16,137.55c-3.83,2.7-3.48,8.53-9.27,7.9C496.83,137,496.83,137,504.16,137.55Z"/><path class="cls-1" d="M227.66,143.3c-2.06-.08-3.8.54-3.69-2.22.09-2.13,1-2.52,2.73-2.3,1.38.18,3.4-.86,3.35,2C230,143,229.15,143.71,227.66,143.3Z"/><path class="cls-1" d="M562.88,143.31c-2.08-.1-3.78.54-3.73-2.22.05-2.54,1.45-2.4,3.1-2.32,1.38.07,3.06-.51,3,2C565.18,142.93,564.37,143.72,562.88,143.31Z"/><path class="cls-1" d="M98.92,52.38c0,22.45-10.44,37.17-30.33,42.54a56.31,56.31,0,0,1-34.21-1.33C24,89.87,16.45,82.89,12.76,72.31a50.08,50.08,0,0,1-1.4-27.66c5-22.6,21.2-32,42.1-33.26,8.19-.48,16.3.46,23.75,4C92.69,22.79,99,35.79,98.92,52.38ZM79.77,29.12C69.65,18.22,49.19,16.23,36.25,25c-11.34,7.68-15,19.14-14.7,32.18C21.77,67.5,25,76.53,33.85,82.77c11.08,7.83,30.15,7.75,41-.35,9.8-7.3,12.58-17.8,12.76-27.79C87.59,44.21,86,35.83,79.77,29.12Z"/><path class="cls-1" d="M389.08,95.22c-4.14,0-8.48,1.18-11.46-.32s-2.75-6.53-4-10c-2.54-6.89-5-13.81-7.24-20.79-.81-2.52-2-3.46-4.74-3.39q-13.11.3-26.22,0c-2.51,0-3.76.73-4.8,3-4.17,9-8.67,17.93-12.75,27-1.49,3.3-3.09,5.32-7.1,4.64-2.39-.4-4.89-.07-7.81-.07,5.05-9.7,9.93-18.91,14.68-28.19q13.2-25.77,26.22-51.61c1-1.89,1.91-2.89,4.16-2.69,3.71.34,8.36-1.42,10.92.65s2.94,6.6,4.21,10.09q12.33,34.05,24.64,68.09C388.14,92.7,388.53,93.74,389.08,95.22Zm-36.69-71.8c-.19-.53-.13-1.48-.93-1.39-.42,0-.86.77-1.11,1.28-2.69,5.33-5.34,10.69-8,16l-6.56,13.16h26.91C359.19,42.59,355.8,33,352.39,23.42Z"/><path class="cls-1" d="M647.77,95.21c-4.2,0-8.53,1.17-11.51-.34s-2.65-6.31-3.85-9.65c-2.62-7.25-5.23-14.51-7.68-21.82-.67-2-1.62-2.65-3.73-2.62q-13.68.19-27.35,0a3.94,3.94,0,0,0-4.2,2.69C585,73,580.28,82.54,575.87,92.15c-1.08,2.36-2.29,3.47-5,3.22s-5.73-.06-9.24-.06c1.91-3.7,3.66-7,5.37-10.37q17.81-34.74,35.56-69.5c1-1.94,2-2.8,4.2-2.61,3.71.32,8.3-1.42,10.92.66,2.42,1.91,2.79,6.42,4,9.79q12.4,34.22,24.78,68.44ZM621.39,52.46,610.21,21,594.48,52.46Z"/><path class="cls-1" d="M544,175.42c-4.35,5.7-9.52,7.86-16,6.38-6.09-1.39-9.47-5.16-10.11-11.36-1.31-12.54,6.24-21.31,18.85-21.92,3.76-.19,7.43.53,11.13,1,1.73.24,2.49.89,2.38,2.91-.59,10.7-1,21.42-1.5,32.14-.32,6.4-3.62,9.94-9.92,11.29-5.38,1.15-10.63.36-15.92-.53-2.16-.36-2.23-1.8-2-3.27.37-2.24,2-.82,2.88-.59a33.59,33.59,0,0,0,10,1.23c6-.28,9.16-3.24,9.75-9.21C543.72,181.08,543.78,178.61,544,175.42Zm.77-17.64c.82-3.81-1.3-5-4.56-5.44-10.12-1.34-17.24,5-17.16,15.25,0,6.11,2.76,9.93,7.7,10.81,5.52,1,10.22-1.82,12.37-7.33,1.3-3.34,1.1-6.85,1.35-10.32A26.67,26.67,0,0,1,544.74,157.78Z"/><path class="cls-1" d="M634.26,164.58c0,10.85-6.62,17.76-16.87,17.67-9.65-.08-15.65-6.26-15.67-16.13,0-10.86,6.52-17.67,16.91-17.6C628.44,148.59,634.27,154.59,634.26,164.58Zm-13.81-12.2c-6.08-1-10.94,2.16-12.64,8.31-2.19,7.9.14,14.86,5.78,17.1a9.92,9.92,0,0,0,2.88.68c7.63.61,12.36-4.66,12.43-13.8C629,157.67,626,153.31,620.45,152.38Z"/><path class="cls-1" d="M153.31,166c0-10.71,6.43-17.45,16.64-17.5,10-.05,15.94,6,15.89,16.17-.05,10.68-6.54,17.54-16.6,17.56C159.4,182.27,153.29,176.05,153.31,166Zm18.92-13.61c-6-1.14-11.06,2-12.79,8.09-2.3,8.06.1,15.15,5.91,17.34a10.33,10.33,0,0,0,2.89.64c7.61.49,12.25-4.84,12.25-14C180.49,157.65,177.59,153.42,172.23,152.41Z"/><path class="cls-1" d="M427.75,166.16c0-10.87,6.49-17.69,16.87-17.64,9.81,0,15.68,6,15.67,16,0,10.71-6.43,17.63-16.45,17.71S427.79,176.16,427.75,166.16Zm5.52,2.61c.7,5.64,4.19,9.32,9.17,9.72,5.79.47,9.85-2.26,11.56-7.87a19.14,19.14,0,0,0,.18-11.41,9.25,9.25,0,0,0-8.74-6.93c-7.55-.54-12.19,4.56-12.3,14.08C433.16,166.78,433.15,167.78,433.27,168.77Z"/><path class="cls-1" d="M512.78,164.52c0,10.87-6.54,17.79-16.79,17.73-9.77-.05-15.8-6.34-15.74-16.43.05-10.56,6.66-17.35,16.85-17.3C506.92,148.57,512.78,154.55,512.78,164.52Zm-26.41,6.88c1.4,4.23,4.5,6.8,8.67,7.1,4.81.34,8.7-1.57,10.53-5.54a18.89,18.89,0,0,0,1.07-13.84,9.18,9.18,0,0,0-8.79-6.84c-7.63-.5-12.27,4.81-12.22,14A17.3,17.3,0,0,0,486.37,171.4Z"/><path class="cls-1" d="M236.54,166.16c0-10.87,6.49-17.69,16.87-17.64,9.82,0,15.68,6,15.67,16,0,10.71-6.44,17.63-16.46,17.7S236.57,176.15,236.54,166.16Zm13.22,12.12c5.85,1.42,10.95-1.47,12.92-7.32,2.57-7.64.43-15.58-4.86-17.79a11.84,11.84,0,0,0-3.61-.87c-7.54-.58-12.18,4.55-12.28,13.49C241.85,172.65,244.6,177,249.76,178.28Z"/><path class="cls-1" d="M350.53,176.77c.75,2.94-.31,4.33-3.12,4.76-3.2.49-6.4,1.09-9.64.59-10.72-1.63-15.84-10.32-12.86-21.73A15.92,15.92,0,0,1,348,150.26c3.76,2,6.18,7,5.85,11.36-.16,2.19-1.49,1.89-2.83,1.89-6.11,0-12.22.12-18.32,0-2.47-.07-3.19.71-3.16,3.12.12,8.41,6.2,13.29,14.89,11.69C346.48,177.89,348.47,177.28,350.53,176.77ZM331,161.23c4.84,0,9.69-.18,14.51.1,3.69.22,3.5-1.65,2.71-4.06a7,7,0,0,0-4.57-4.55c-6.2-2.17-12.35,1.63-13.34,8.29A2.31,2.31,0,0,0,331,161.23Z"/><path class="cls-1" d="M719.69,77.37c-.06,11.65-7.12,18.73-18.64,18.69-11.12,0-17.75-6.47-17.75-17.23,0-11.55,7.42-18.83,19.1-18.75C713.09,60.15,719.74,66.8,719.69,77.37Zm-2.27.35c0-9.82-5.46-15.36-15.18-15.38-10.3,0-16.64,6.18-16.71,16.37-.07,9.43,5.74,15.06,15.57,15.1C711.49,93.84,717.41,88,717.42,77.72ZM706,77.85a5.34,5.34,0,0,0,2.71-5.35,4,4,0,0,0-3.12-3.74c-2.93-.9-5.94-.31-8.91-.38-1.33,0-1.08,1.08-1.12,1.9q-.33,7.66-.63,15.31c-.05,1.09-.38,2.29,1.49,2.24s1.46-1.3,1.49-2.35q.16-6.17.3-12.33c0-1.46.09-2.78,2.17-2.58s4.52-.67,5.39,2.09a3.29,3.29,0,0,1-2.22,4.2,27.3,27.3,0,0,1-4.86.87c3.69,3.25,3.75,9,8.69,10.22l.83-.73-5.35-7.91C703.77,78.15,705.09,78.42,706,77.85Z"/></svg>